# Blender 3.6.2
# www.blender.org
mtllib wonka.mtl
o recoN_v3.007
v 0.660804 0.604919 1.968892
v 0.657866 0.617275 1.981592
v 0.688452 0.598439 1.981592
v 0.676097 0.595502 1.968892
v 0.660624 0.605674 1.976094
v 0.667990 0.605830 1.968892
v 0.668746 0.606807 1.976777
v 0.672239 0.619096 1.981592
v 0.659532 0.610268 1.980815
v 0.670288 0.611214 1.981010
v 0.681446 0.596773 1.980815
v 0.683610 0.612094 1.981592
v 0.677449 0.606804 1.981010
v 0.673676 0.602329 1.968892
v 0.676852 0.595681 1.976094
v 0.674208 0.603444 1.976777
v -0.901087 0.233494 1.968892
v -0.912868 0.217869 1.968892
v -0.925555 0.217294 1.981592
v -0.904025 0.245849 1.981592
v -0.907982 0.231101 1.968892
v -0.901267 0.234249 1.976094
v -0.909017 0.231647 1.976775
v -0.913644 0.217833 1.976094
v -0.912465 0.225155 1.968892
v -0.913274 0.226000 1.976775
v -0.924818 0.230610 1.981592
v -0.918361 0.217620 1.980815
v -0.917361 0.227928 1.981008
v -0.902359 0.238843 1.980815
v -0.916625 0.241477 1.981592
v -0.911994 0.235045 1.981008
v 0.868281 -0.212877 1.968892
v 0.880637 -0.209940 1.981592
v 0.861112 -0.240080 1.981592
v 0.858742 -0.227603 1.968892
v 0.869037 -0.212698 1.976094
v 0.869181 -0.220053 1.968892
v 0.870163 -0.220830 1.976778
v 0.882479 -0.224628 1.981592
v 0.873630 -0.211606 1.980815
v 0.874579 -0.222483 1.981011
v 0.859768 -0.233005 1.980815
v 0.875270 -0.235756 1.981592
v 0.870083 -0.229424 1.981011
v 0.865659 -0.225491 1.968892
v 0.858887 -0.228366 1.976094
v 0.866769 -0.226070 1.976778
v -0.865297 -0.555136 1.968892
v -0.862927 -0.567613 1.981592
v -0.891036 -0.545394 1.981592
v -0.878348 -0.544820 1.968892
v -0.865152 -0.555899 1.976094
v -0.872487 -0.555690 1.968892
v -0.873354 -0.556643 1.976779
v -0.878411 -0.568805 1.981592
v -0.864271 -0.560538 1.980815
v -0.875462 -0.560991 1.981013
v -0.883841 -0.545068 1.980815
v -0.888621 -0.560735 1.981592
v -0.881698 -0.556062 1.981013
v -0.877227 -0.551943 1.968892
v -0.879124 -0.544855 1.976094
v -0.877955 -0.553006 1.976779
v 0.722562 0.705208 1.641525
v 0.725627 0.692883 1.628825
v 0.737983 0.695822 1.641525
v 0.722664 0.704797 1.634110
v 0.729879 0.706513 1.641525
v 0.730151 0.706013 1.633965
v 0.732841 0.694598 1.629248
v 0.723837 0.700079 1.629248
v 0.731157 0.701968 1.629797
v 0.735781 0.702920 1.641525
v 0.737571 0.695723 1.634110
v 0.735213 0.702932 1.633965
v -0.987398 0.298571 1.641525
v -0.998684 0.282978 1.641525
v -0.986178 0.285807 1.628825
v -0.994618 0.296463 1.641525
v -0.987316 0.298115 1.634110
v -0.994664 0.295849 1.633965
v -0.998225 0.283042 1.634110
v -0.998938 0.290495 1.641525
v -0.998369 0.290731 1.633965
v -0.986849 0.293230 1.629248
v -0.993438 0.284125 1.629248
v -0.994264 0.291660 1.629797
v 0.980396 -0.331563 1.628825
v 0.982637 -0.342099 1.641377
v 0.992007 -0.327212 1.641519
v 0.982175 -0.338750 1.629205
v 0.987646 -0.330058 1.629287
v 0.989593 -0.337340 1.629791
v 0.989812 -0.340243 1.641421
v 0.983032 -0.342783 1.634009
v 0.990328 -0.340798 1.633911
v 0.992090 -0.328393 1.634146
v 0.993399 -0.334544 1.641475
v 0.993404 -0.335912 1.633958
v -0.917527 -0.693370 1.641455
v -0.903913 -0.703783 1.641358
v -0.903486 -0.692856 1.628825
v -0.916482 -0.700748 1.641425
v -0.916232 -0.694368 1.634107
v -0.915035 -0.701890 1.633933
v -0.903073 -0.704435 1.634014
v -0.911271 -0.704734 1.641388
v -0.910567 -0.705308 1.633902
v -0.910858 -0.694172 1.629273
v -0.902910 -0.700252 1.629216
v -0.910426 -0.701721 1.629788
v 0.722562 0.705208 1.968892
v 0.737855 0.695790 1.968892
v 0.725500 0.692852 1.981592
v 0.729874 0.706511 1.968892
v 0.722660 0.704796 1.976307
v 0.730141 0.706011 1.976451
v 0.737443 0.695692 1.976307
v 0.735728 0.702907 1.968892
v 0.735161 0.702920 1.976451
v 0.723785 0.700066 1.981168
v 0.732714 0.694568 1.981168
v 0.731105 0.701956 1.980619
v -0.986591 0.285709 1.981592
v -0.999179 0.282946 1.968892
v -0.987398 0.298571 1.968892
v -0.993751 0.284696 1.980817
v -0.987587 0.292871 1.980817
v -0.994900 0.291974 1.980408
v -0.998776 0.290232 1.968892
v -0.998436 0.283668 1.976090
v -0.998441 0.291101 1.976644
v -0.987888 0.297658 1.976090
v -0.994292 0.296179 1.968892
v -0.995035 0.295618 1.976644
v 0.970278 -0.280101 1.968898
v 0.960755 -0.294957 1.969039
v 0.956973 -0.280784 1.981592
v 0.971587 -0.287437 1.968942
v 0.969378 -0.279162 1.976271
v 0.970588 -0.286643 1.976459
v 0.960173 -0.293522 1.976407
v 0.967941 -0.293124 1.968996
v 0.967462 -0.291519 1.976505
v 0.964285 -0.279423 1.981130
v 0.958725 -0.288097 1.981212
v 0.966221 -0.286867 1.980625
v -0.942619 -0.656679 1.969058
v -0.955714 -0.646246 1.968970
v -0.944600 -0.642045 1.981592
v -0.949970 -0.657647 1.969031
v -0.943481 -0.655193 1.976400
v -0.950997 -0.656041 1.976515
v -0.956140 -0.645108 1.976315
v -0.954983 -0.653653 1.968997
v -0.955295 -0.652617 1.976486
v -0.944239 -0.649592 1.981198
v -0.951885 -0.643500 1.981147
v -0.951647 -0.651238 1.980629
v 0.660804 0.604919 1.936533
v 0.676097 0.595502 1.936533
v 0.663741 0.592564 1.923833
v 0.668116 0.606223 1.936533
v 0.660902 0.604507 1.929118
v 0.668383 0.605722 1.928973
v 0.675685 0.595404 1.929118
v 0.673970 0.602618 1.936533
v 0.673402 0.602631 1.928973
v 0.662026 0.599778 1.924256
v 0.670955 0.594279 1.924256
v 0.669347 0.601667 1.924805
v -0.901087 0.233494 1.936533
v -0.900280 0.220631 1.923833
v -0.912868 0.217869 1.936533
v -0.900996 0.233017 1.929118
v -0.908346 0.231403 1.936533
v -0.908389 0.230767 1.928973
v -0.907566 0.218970 1.924256
v -0.900687 0.228093 1.924256
v -0.908124 0.226545 1.924805
v -0.912856 0.225423 1.936533
v -0.912385 0.217912 1.929118
v -0.912255 0.225639 1.928973
v 0.868281 -0.212877 1.936533
v 0.858742 -0.227603 1.936533
v 0.855789 -0.215237 1.923833
v 0.869585 -0.220173 1.936533
v 0.867860 -0.212953 1.929118
v 0.869074 -0.220413 1.928973
v 0.858639 -0.227188 1.929118
v 0.865933 -0.225810 1.936533
v 0.865943 -0.225246 1.928973
v 0.863078 -0.213857 1.924256
v 0.857509 -0.222455 1.924256
v 0.864974 -0.221187 1.924805
v -0.865297 -0.555136 1.936533
v -0.878348 -0.544820 1.936533
v -0.865750 -0.542295 1.923833
v -0.872635 -0.556140 1.936533
v -0.865279 -0.554666 1.929118
v -0.872763 -0.555570 1.928973
v -0.877895 -0.544693 1.929118
v -0.877631 -0.552191 1.936533
v -0.877047 -0.552184 1.928973
v -0.865452 -0.549750 1.924256
v -0.873072 -0.543727 1.924256
v -0.872912 -0.551355 1.924805
vn -0.9640 -0.2631 -0.0382
vn -0.9632 -0.2680 0.0227
vn -0.9777 -0.2098 0.0029
vn -0.9772 -0.2042 -0.0584
vn -0.0367 0.0194 0.9991
vn -0.0230 -0.0370 0.9991
vn 0.0376 -0.0270 0.9989
vn 0.0260 0.0301 0.9992
vn 0.2652 -0.9634 -0.0381
vn 0.2633 -0.9642 0.0320
vn 0.2017 -0.9790 0.0309
vn 0.2017 -0.9788 -0.0365
vn 0.9956 0.0842 0.0403
vn 0.9890 0.1027 0.1061
vn 0.9974 0.0412 0.0591
vn 0.9997 0.0204 -0.0099
vn -0.2161 0.9591 -0.1827
vn -0.2187 0.9674 -0.1278
vn -0.1552 0.9796 -0.1276
vn -0.1539 0.9707 -0.1846
vn -0.0374 0.0282 -0.9989
vn 0.0224 0.0365 -0.9991
vn 0.0351 -0.0227 -0.9991
vn -0.0245 -0.0309 -0.9992
vn 0.9814 0.1847 -0.0527
vn 0.9803 0.1955 -0.0291
vn 0.9634 0.2665 -0.0289
vn 0.9596 0.2763 -0.0527
vn -0.9986 -0.0018 -0.0523
vn -0.9994 -0.0135 -0.0324
vn -0.9963 -0.0802 -0.0317
vn -0.9943 -0.0924 -0.0526
vn 0.1396 -0.9888 -0.0526
vn 0.1519 -0.9879 -0.0307
vn 0.2223 -0.9745 -0.0297
vn 0.2326 -0.9711 -0.0527
vn 0.0136 -0.0475 -0.9988
vn 0.0246 -0.0307 -0.9992
vn 0.0296 -0.0077 -0.9995
vn -0.0362 0.0192 -0.9992
vn 0.0329 0.0287 -0.9990
vn -0.0094 -0.0278 -0.9996
vn 0.0048 -0.0491 -0.9988
vn -0.0158 0.0469 -0.9988
vn -0.0251 0.0323 -0.9992
vn -0.0308 0.0124 -0.9994
vn 0.0467 -0.0349 -0.9983
vn -0.0216 -0.0426 -0.9989
vn 0.0075 0.0302 -0.9995
vn -0.0070 0.0490 -0.9988
vn -0.0489 -0.0067 -0.9988
vn -0.0326 -0.0204 -0.9993
vn -0.0495 0.0023 -0.9988
vn 0.0469 0.0158 -0.9988
vn 0.0301 0.0259 -0.9992
vn 0.0489 0.0070 -0.9988
vn -0.1852 0.9813 -0.0527
vn -0.1498 0.8905 -0.4296
vn 0.1943 0.8408 -0.5052
vn 0.1968 0.9782 -0.0655
vn -0.0614 0.4101 -0.9100
vn 0.0855 0.3294 -0.9403
vn 0.2556 0.2246 -0.9403
vn 0.3938 0.1297 -0.9100
vn 0.8626 0.2670 -0.4296
vn 0.6634 0.5520 -0.5052
vn 0.7850 0.6161 -0.0655
vn -0.2730 0.9606 -0.0523
vn -0.5766 0.8148 -0.0611
vn -0.5255 0.6951 -0.4906
vn -0.2650 0.8635 -0.4290
vn -0.9419 0.3302 -0.0611
vn -0.8128 0.3140 -0.4906
vn -0.9031 0.0172 -0.4290
vn -0.4149 0.0158 -0.9097
vn -0.3291 0.1356 -0.9345
vn -0.2209 0.2791 -0.9345
vn -0.1293 0.3946 -0.9097
vn 0.8905 0.1493 -0.4297
vn 0.8364 -0.2029 -0.5092
vn 0.9759 -0.2081 -0.0664
vn 0.4099 0.0613 -0.9100
vn 0.3242 -0.0885 -0.9418
vn 0.2133 -0.2597 -0.9418
vn 0.1117 -0.3992 -0.9101
vn 0.2278 -0.8738 -0.4297
vn 0.5271 -0.6803 -0.5092
vn 0.5888 -0.8055 -0.0664
vn 0.1079 -0.8964 -0.4300
vn -0.2576 -0.8155 -0.5183
vn -0.2751 -0.9590 -0.0679
vn 0.0424 -0.4121 -0.9102
vn -0.1084 -0.3080 -0.9452
vn -0.2746 -0.1766 -0.9452
vn -0.4107 -0.0539 -0.9102
vn -0.8970 -0.1020 -0.4300
vn -0.7340 -0.4389 -0.5183
vn -0.8696 -0.4891 -0.0679
vn 0.1849 -0.8949 0.4062
vn -0.1591 -0.9159 0.3686
vn -0.1813 -0.9830 0.0272
vn 0.0675 -0.4011 0.9135
vn -0.2720 -0.4468 0.8523
vn -0.3895 -0.1249 0.9125
vn -0.8823 -0.2474 0.4005
vn -0.7405 -0.5620 0.3686
vn -0.7915 -0.6105 0.0271
vn 0.5763 -0.8167 0.0290
vn 0.5235 -0.7688 0.3673
vn 0.2344 -0.8828 0.4070
vn 0.9530 -0.3016 0.0293
vn 0.8939 -0.2571 0.3673
vn 0.9034 0.0522 0.4257
vn 0.4030 0.0090 0.9152
vn 0.4335 -0.3138 0.8447
vn 0.1186 -0.3909 0.9127
vn -0.1148 0.4240 0.8983
vn -0.4605 0.3064 0.8331
vn -0.4071 -0.0749 0.9103
vn -0.2121 0.9316 0.2950
vn -0.5558 0.7887 0.2627
vn -0.5815 0.8034 -0.1280
vn -0.9810 0.1832 -0.0636
vn -0.9355 0.1729 0.3081
vn -0.9011 -0.1959 0.3868
vn 0.8662 0.4961 0.0593
vn 0.7894 0.4712 0.3934
vn 0.8833 0.1010 0.4578
vn 0.2588 0.9626 -0.0804
vn 0.2248 0.9277 0.2981
vn -0.1496 0.9435 0.2956
vn -0.0521 0.4353 0.8988
vn 0.2879 0.4346 0.8534
vn 0.3837 0.0580 0.9216
vn -0.1826 -0.9828 -0.0273
vn -0.1617 -0.9152 -0.3691
vn 0.1844 -0.8926 -0.4113
vn -0.7938 -0.6075 -0.0273
vn -0.7445 -0.5564 -0.3691
vn -0.8801 -0.2373 -0.4111
vn -0.3871 -0.1200 -0.9142
vn -0.2737 -0.4444 -0.8530
vn 0.0688 -0.4065 -0.9111
vn 0.4170 0.0074 -0.9089
vn 0.4347 -0.3277 -0.8388
vn 0.1062 -0.3970 -0.9117
vn 0.9210 0.0283 -0.3886
vn 0.8954 -0.2774 -0.3482
vn 0.9499 -0.3123 -0.0117
vn 0.5697 -0.8218 -0.0119
vn 0.5131 -0.7846 -0.3482
vn 0.2245 -0.8854 -0.4071
vn -0.9756 0.1855 -0.1172
vn -0.8900 0.1543 -0.4290
vn -0.8865 -0.1854 -0.4240
vn -0.5762 0.7979 -0.1773
vn -0.5150 0.7167 -0.4702
vn -0.1896 0.8405 -0.5075
vn -0.0973 0.3539 -0.9302
vn -0.4164 0.2434 -0.8760
vn -0.3955 -0.0696 -0.9158
vn 0.2641 0.9550 -0.1348
vn 0.2509 0.8588 -0.4467
vn -0.1333 0.8498 -0.5099
vn 0.8761 0.4821 0.0041
vn 0.8348 0.4239 -0.3514
vn 0.9306 0.0675 -0.3599
vn 0.4251 0.0445 -0.9041
vn 0.3395 0.3599 -0.8690
vn -0.0396 0.3626 -0.9311
vn -0.1956 0.9802 -0.0299
vn 0.1896 0.9816 -0.0224
vn 0.1617 0.9152 -0.3691
vn -0.1848 0.8947 -0.4066
vn 0.7912 0.6111 -0.0224
vn 0.7445 0.5564 -0.3691
vn 0.8825 0.2378 -0.4057
vn 0.3883 0.1203 -0.9136
vn 0.2737 0.4444 -0.8530
vn -0.0673 0.4010 -0.9136
vn -0.2620 0.9645 -0.0318
vn -0.2325 0.8828 -0.4082
vn -0.5137 0.7749 -0.3683
vn -0.5696 0.8215 -0.0256
vn -0.1176 0.3914 -0.9127
vn -0.4292 0.3236 -0.8433
vn -0.4087 0.0054 -0.9126
vn -0.9125 -0.0193 -0.4087
vn -0.8863 0.2807 -0.3683
vn -0.9465 0.3216 -0.0256
vn 0.9793 -0.2010 -0.0230
vn 0.9121 -0.1730 -0.3716
vn 0.8949 0.1848 -0.4061
vn 0.5838 -0.8116 -0.0230
vn 0.5308 -0.7617 -0.3716
vn 0.1972 -0.8920 -0.4067
vn 0.1025 -0.3925 -0.9140
vn 0.4334 -0.2808 -0.8563
vn 0.4001 0.0669 -0.9140
vn -0.2680 -0.9631 -0.0264
vn -0.2359 -0.8942 -0.3804
vn 0.1454 -0.9011 -0.4086
vn -0.8752 -0.4831 -0.0264
vn -0.8156 -0.4359 -0.3804
vn -0.9099 -0.0665 -0.4095
vn -0.4007 -0.0453 -0.9151
vn -0.3114 -0.3939 -0.8648
vn 0.0485 -0.4003 -0.9151
s 1
f 114//1 67//2 91//3 137//4
f 89//5 66//6 79//7 103//8
f 127//9 77//10 65//11 113//12
f 150//13 101//14 78//15 126//16
f 138//17 90//18 102//19 149//20
f 174//21 163//22 187//23 199//24
f 33//25 185//26 162//27 4//28
f 18//29 175//30 198//31 52//32
f 49//33 197//34 186//35 36//36
f 35//37 44//38 40//39 139//40 151//41 56//42 50//43
f 20//44 31//45 27//46 125//47 115//48 8//49 2//50
f 51//51 60//52 56//42 151//41 125//47 27//46 19//53
f 3//54 12//55 8//49 115//48 139//40 40//39 34//56
f 1//57 5//58 7//59 6//60
f 5//58 9//61 10//62 7//59
f 2//50 8//49 10//62 9//61
f 8//49 12//55 13//63 10//62
f 3//54 11//64 13//63 12//55
f 11//64 15//65 16//66 13//63
f 4//28 14//67 16//66 15//65
f 14//67 6//60 7//59 16//66
f 7//59 10//62 13//63 16//66
f 17//68 21//69 23//70 22//71
f 21//69 25//72 26//73 23//70
f 18//29 24//74 26//73 25//72
f 24//74 28//75 29//76 26//73
f 19//53 27//46 29//76 28//75
f 27//46 31//45 32//77 29//76
f 20//44 30//78 32//77 31//45
f 30//78 22//71 23//70 32//77
f 23//70 26//73 29//76 32//77
f 33//25 37//79 39//80 38//81
f 37//79 41//82 42//83 39//80
f 34//56 40//39 42//83 41//82
f 40//39 44//38 45//84 42//83
f 35//37 43//85 45//84 44//38
f 43//85 47//86 48//87 45//84
f 36//36 46//88 48//87 47//86
f 46//88 38//81 39//80 48//87
f 39//80 42//83 45//84 48//87
f 49//33 53//89 55//90 54//91
f 53//89 57//92 58//93 55//90
f 50//43 56//42 58//93 57//92
f 56//42 60//52 61//94 58//93
f 51//51 59//95 61//94 60//52
f 59//95 63//96 64//97 61//94
f 52//32 62//98 64//97 63//96
f 62//98 54//91 55//90 64//97
f 55//90 58//93 61//94 64//97
f 65//11 68//99 70//100 69//101
f 68//99 72//102 73//103 70//100
f 66//6 71//104 73//103 72//102
f 71//104 75//105 76//106 73//103
f 67//2 74//107 76//106 75//105
f 74//107 69//101 70//100 76//106
f 70//100 73//103 76//106
f 77//10 80//108 82//109 81//110
f 80//108 84//111 85//112 82//109
f 78//15 83//113 85//112 84//111
f 83//113 87//114 88//115 85//112
f 79//7 86//116 88//115 87//114
f 86//116 81//110 82//109 88//115
f 82//109 85//112 88//115
f 89//5 92//117 94//118 93//119
f 92//117 96//120 97//121 94//118
f 90//18 95//122 97//121 96//120
f 95//122 99//123 100//124 97//121
f 91//3 98//125 100//124 99//123
f 98//125 93//119 94//118 100//124
f 94//118 97//121 100//124
f 101//14 104//126 106//127 105//128
f 104//126 108//129 109//130 106//127
f 102//19 107//131 109//130 108//129
f 107//131 111//132 112//133 109//130
f 103//8 110//134 112//133 111//132
f 110//134 105//128 106//127 112//133
f 106//127 109//130 112//133
f 113//12 116//135 118//136 117//137
f 116//135 120//138 121//139 118//136
f 114//1 119//140 121//139 120//138
f 119//140 123//141 124//142 121//139
f 115//48 122//143 124//142 123//141
f 122//143 117//137 118//136 124//142
f 118//136 121//139 124//142
f 125//47 128//144 130//145 129//146
f 128//144 132//147 133//148 130//145
f 126//16 131//149 133//148 132//147
f 131//149 135//150 136//151 133//148
f 127//9 134//152 136//151 135//150
f 134//152 129//146 130//145 136//151
f 130//145 133//148 136//151
f 137//4 140//153 142//154 141//155
f 140//153 144//156 145//157 142//154
f 138//17 143//158 145//157 144//156
f 143//158 147//159 148//160 145//157
f 139//40 146//161 148//160 147//159
f 146//161 141//155 142//154 148//160
f 142//154 145//157 148//160
f 149//20 152//162 154//163 153//164
f 152//162 156//165 157//166 154//163
f 150//13 155//167 157//166 156//165
f 155//167 159//168 160//169 157//166
f 151//41 158//170 160//169 159//168
f 158//170 153//164 154//163 160//169
f 154//163 157//166 160//169
f 161//171 164//172 166//173 165//174
f 164//172 168//175 169//176 166//173
f 162//27 167//177 169//176 168//175
f 167//177 171//178 172//179 169//176
f 163//22 170//180 172//179 171//178
f 170//180 165//174 166//173 172//179
f 166//173 169//176 172//179
f 173//181 176//182 178//183 177//184
f 176//182 180//185 181//186 178//183
f 174//21 179//187 181//186 180//185
f 179//187 183//188 184//189 181//186
f 175//30 182//190 184//189 183//188
f 182//190 177//184 178//183 184//189
f 178//183 181//186 184//189
f 185//26 188//191 190//192 189//193
f 188//191 192//194 193//195 190//192
f 186//35 191//196 193//195 192//194
f 191//196 195//197 196//198 193//195
f 187//23 194//199 196//198 195//197
f 194//199 189//193 190//192 196//198
f 190//192 193//195 196//198
f 197//34 200//200 202//201 201//202
f 200//200 204//203 205//204 202//201
f 198//31 203//205 205//204 204//203
f 203//205 207//206 208//207 205//204
f 199//24 206//208 208//207 207//206
f 206//208 201//202 202//201 208//207
f 202//201 205//204 208//207
f 115//48 125//47 129//146 122//143
f 122//143 129//146 134//152 117//137
f 117//137 134//152 127//9 113//12
f 114//1 137//4 141//155 119//140
f 119//140 141//155 146//161 123//141
f 123//141 146//161 139//40 115//48
f 138//17 149//20 153//164 143//158
f 143//158 153//164 158//170 147//159
f 147//159 158//170 151//41 139//40
f 65//11 77//10 81//110 68//99
f 68//99 81//110 86//116 72//102
f 72//102 86//116 79//7 66//6
f 66//6 89//5 93//119 71//104
f 71//104 93//119 98//125 75//105
f 75//105 98//125 91//3 67//2
f 103//8 79//7 87//114 110//134
f 110//134 87//114 83//113 105//128
f 105//128 83//113 78//15 101//14
f 113//12 65//11 69//101 116//135
f 116//135 69//101 74//107 120//138
f 120//138 74//107 67//2 114//1
f 126//16 78//15 84//111 131//149
f 131//149 84//111 80//108 135//150
f 135//150 80//108 77//10 127//9
f 137//4 91//3 99//123 140//153
f 140//153 99//123 95//122 144//156
f 144//156 95//122 90//18 138//17
f 150//13 126//16 132//147 155//167
f 155//167 132//147 128//144 159//168
f 159//168 128//144 125//47 151//41
f 89//5 103//8 111//132 92//117
f 92//117 111//132 107//131 96//120
f 96//120 107//131 102//19 90//18
f 149//20 102//19 108//129 152//162
f 152//162 108//129 104//126 156//165
f 156//165 104//126 101//14 150//13
f 1//57 17//68 22//71 5//58
f 5//58 22//71 30//78 9//61
f 9//61 30//78 20//44 2//50
f 3//54 34//56 41//82 11//64
f 11//64 41//82 37//79 15//65
f 15//65 37//79 33//25 4//28
f 35//37 50//43 57//92 43//85
f 43//85 57//92 53//89 47//86
f 47//86 53//89 49//33 36//36
f 51//51 19//53 28//75 59//95
f 59//95 28//75 24//74 63//96
f 63//96 24//74 18//29 52//32
f 163//22 174//21 180//185 170//180
f 170//180 180//185 176//182 165//174
f 165//174 176//182 173//181 161//171
f 162//27 185//26 189//193 167//177
f 167//177 189//193 194//199 171//178
f 171//178 194//199 187//23 163//22
f 186//35 197//34 201//202 191//196
f 191//196 201//202 206//208 195//197
f 195//197 206//208 199//24 187//23
f 198//31 175//30 183//188 203//205
f 203//205 183//188 179//187 207//206
f 207//206 179//187 174//21 199//24
f 36//36 186//35 192//194 46//88
f 46//88 192//194 188//191 38//81
f 38//81 188//191 185//26 33//25
f 197//34 49//33 54//91 200//200
f 200//200 54//91 62//98 204//203
f 204//203 62//98 52//32 198//31
f 17//68 173//181 177//184 21//69
f 21//69 177//184 182//190 25//72
f 25//72 182//190 175//30 18//29
f 161//171 1//57 6//60 164//172
f 164//172 6//60 14//67 168//175
f 168//175 14//67 4//28 162//27
f 1//57 161//171 173//181 17//68
